<svg xmlns="http://www.w3.org/2000/svg" width="256" height="256" viewBox="0 0 100 100"><defs><clipPath id="fcCZ18_c"><rect width="100" height="100" rx="16" ry="16"/></clipPath></defs><g clip-path="url(#fcCZ18_c)"><rect width="100" height="100" fill="#FFF8F0"/><g transform="rotate(-2, 50, 50)"><ellipse cx="50" cy="47" fill="none" stroke="#2B3A3B" stroke-width="2.2" rx="28" ry="30"/><ellipse cx="32" cy="42" fill="#2B3A3B" rx="3.5" ry="6"/><ellipse cx="68" cy="42" fill="#2B3A3B" rx="3.5" ry="6"/><line x1="28" x2="35" y1="32" y2="33" stroke="#2B3A3B" stroke-linecap="round" stroke-width="1.8"/><line x1="65" x2="72" y1="33" y2="32" stroke="#2B3A3B" stroke-linecap="round" stroke-width="1.8"/><line x1="50" x2="50" y1="48" y2="53" stroke="#2B3A3B" stroke-linecap="round" stroke-width="1.5" opacity=".5"/><path fill="none" stroke="#2B3A3B" stroke-linecap="round" stroke-width="1.8" d="M44 63 Q47 67 50 63"/><path fill="none" stroke="#2B3A3B" stroke-linecap="round" stroke-width="1.8" d="M50 63 Q53 67 56 63"/><circle cx="30" cy="50" r="5" fill="#D4713B" opacity=".2"/><circle cx="70" cy="50" r="5" fill="#D4713B" opacity=".2"/><circle cx="38" cy="50" r="1" fill="#2B3A3B" opacity=".2"/><circle cx="41" cy="52" r="1" fill="#2B3A3B" opacity=".15"/><circle cx="59" cy="49" r="1" fill="#2B3A3B" opacity=".2"/><circle cx="62" cy="51" r="1" fill="#2B3A3B" opacity=".15"/></g><text x="50" y="82" fill="#2B3A3B" font-family="'Caveat', cursive" font-size="14" font-weight="600" opacity=".7" text-anchor="middle">CZ</text></g></svg>