<svg xmlns="http://www.w3.org/2000/svg" width="256" height="256" viewBox="0 0 100 100">
  <defs><clipPath id="gh324_c"><rect width="100" height="100" rx="16"/></clipPath></defs>
  <g clip-path="url(#gh324_c)">
    <rect width="100" height="100" fill="#1E1A2A"/>
    <circle cx="15" cy="59" r="2" fill="#FFE4E8" opacity="0.2"/><circle cx="29" cy="59" r="1" fill="#FFE4E8" opacity="0.2"/><circle cx="75" cy="68" r="1" fill="#FFE4E8" opacity="0.2"/>
    <g transform="translate(0,-3) rotate(2, 50, 50)">
      <path d="M18,59 L18,75 Q26,79 34,75 Q42,71 50,75 Q58,79 66,75 Q74,71 82,75  L82,59 C82,11 18,11 18,59 Z" fill="#FFE4E8" opacity="0.85"/>
      <line x1="39" y1="48.2" x2="45" y2="48.2" stroke="#1E1A2A" stroke-width="2.5" stroke-linecap="round"/><line x1="55" y1="48.2" x2="61" y2="48.2" stroke="#1E1A2A" stroke-width="2.5" stroke-linecap="round"/>
      <path d="M47,55.2 Q50,60.2 53,55.2" fill="none" stroke="#1E1A2A" stroke-width="1.8" stroke-linecap="round"/>
      <circle cx="40" cy="53.2" r="4" fill="#FF9E9E" opacity="0.25"/><circle cx="60" cy="53.2" r="4" fill="#FF9E9E" opacity="0.25"/>
    </g>
  </g></svg>