<svg xmlns="http://www.w3.org/2000/svg" width="256" height="256" viewBox="0 0 100 100" shape-rendering="crispEdges">
  <defs>
    <clipPath id="px1212_c"><rect width="100" height="100" rx="6" ry="6"/></clipPath>
  </defs>
  <g clip-path="url(#px1212_c)">
    <rect width="100" height="100" fill="#1B1B3A"/>
    <rect x="80" y="10" width="10" height="10" fill="#F564A9" opacity="0.13"/><rect x="90" y="80" width="10" height="10" fill="#F564A9" opacity="0.09"/><rect x="40" y="70" width="10" height="10" fill="#F564A9" opacity="0.11"/><rect x="50" y="0" width="10" height="10" fill="#F564A9" opacity="0.14"/><rect x="80" y="20" width="10" height="10" fill="#FAC67A" opacity="0.13"/><rect x="20" y="90" width="10" height="10" fill="#F564A9" opacity="0.12"/><rect x="60" y="50" width="10" height="10" fill="#F564A9" opacity="0.1"/><rect x="50" y="80" width="10" height="10" fill="#FAC67A" opacity="0.16999999999999998"/><rect x="50" y="70" width="10" height="10" fill="#F564A9" opacity="0.08"/><rect x="80" y="70" width="10" height="10" fill="#FAC67A" opacity="0.09"/><rect x="90" y="80" width="10" height="10" fill="#F564A9" opacity="0.16"/><rect x="50" y="40" width="10" height="10" fill="#F564A9" opacity="0.15000000000000002"/>
    <rect x="12" y="32" width="7" height="7" fill="#F564A9" rx="0.3"/><rect x="19" y="32" width="7" height="7" fill="#F564A9" rx="0.3"/><rect x="26" y="32" width="7" height="7" fill="#F564A9" rx="0.3"/><rect x="33" y="32" width="7" height="7" fill="#F564A9" rx="0.3"/><rect x="12" y="39" width="7" height="7" fill="#F564A9" rx="0.3"/><rect x="40" y="39" width="7" height="7" fill="#F564A9" rx="0.3"/><rect x="12" y="46" width="7" height="7" fill="#F564A9" rx="0.3"/><rect x="19" y="46" width="7" height="7" fill="#F564A9" rx="0.3"/><rect x="26" y="46" width="7" height="7" fill="#F564A9" rx="0.3"/><rect x="33" y="46" width="7" height="7" fill="#F564A9" rx="0.3"/><rect x="12" y="53" width="7" height="7" fill="#F564A9" rx="0.3"/><rect x="40" y="53" width="7" height="7" fill="#F564A9" rx="0.3"/><rect x="12" y="60" width="7" height="7" fill="#F564A9" rx="0.3"/><rect x="19" y="60" width="7" height="7" fill="#F564A9" rx="0.3"/><rect x="26" y="60" width="7" height="7" fill="#F564A9" rx="0.3"/><rect x="33" y="60" width="7" height="7" fill="#F564A9" rx="0.3"/><rect x="53" y="32" width="7" height="7" fill="#F564A9" rx="0.3"/><rect x="60" y="32" width="7" height="7" fill="#F564A9" rx="0.3"/><rect x="67" y="32" width="7" height="7" fill="#F564A9" rx="0.3"/><rect x="74" y="32" width="7" height="7" fill="#F564A9" rx="0.3"/><rect x="53" y="39" width="7" height="7" fill="#F564A9" rx="0.3"/><rect x="81" y="39" width="7" height="7" fill="#F564A9" rx="0.3"/><rect x="53" y="46" width="7" height="7" fill="#F564A9" rx="0.3"/><rect x="81" y="46" width="7" height="7" fill="#F564A9" rx="0.3"/><rect x="53" y="53" width="7" height="7" fill="#F564A9" rx="0.3"/><rect x="81" y="53" width="7" height="7" fill="#F564A9" rx="0.3"/><rect x="53" y="60" width="7" height="7" fill="#F564A9" rx="0.3"/><rect x="60" y="60" width="7" height="7" fill="#F564A9" rx="0.3"/><rect x="67" y="60" width="7" height="7" fill="#F564A9" rx="0.3"/><rect x="74" y="60" width="7" height="7" fill="#F564A9" rx="0.3"/>
  </g>
</svg>