<svg xmlns="http://www.w3.org/2000/svg" width="256" height="256" shape-rendering="crispEdges" viewBox="0 0 100 100"><defs><clipPath id="px1212_c"><rect width="100" height="100" rx="6" ry="6"/></clipPath></defs><g clip-path="url(#px1212_c)"><rect width="100" height="100" fill="#0D2B45"/><rect width="10" height="10" x="10" y="50" fill="#7EC8E3" opacity=".12"/><rect width="10" height="10" x="60" y="10" fill="#7EC8E3" opacity=".08"/><rect width="10" height="10" x="60" y="90" fill="#7EC8E3" opacity=".09"/><rect width="10" height="10" x="70" y="60" fill="#7EC8E3" opacity=".1"/><rect width="10" height="10" x="20" y="60" fill="#7EC8E3" opacity=".11"/><rect width="10" height="10" x="0" y="10" fill="#7EC8E3" opacity=".1"/><rect width="10" height="10" x="10" y="30" fill="#7EC8E3" opacity=".11"/><rect width="10" height="10" x="20" y="60" fill="#FEC" opacity=".08"/><rect width="10" height="10" x="30" y="70" fill="#7EC8E3" opacity=".14"/><rect width="10" height="10" x="10" y="90" fill="#FEC" opacity=".15"/><rect width="10" height="10" x="60" y="70" fill="#FEC" opacity=".17"/><rect width="10" height="10" x="0" y="80" fill="#7EC8E3" opacity=".14"/><rect width="7" height="7" x="19" y="32" fill="#7EC8E3" rx=".3"/><rect width="7" height="7" x="26" y="32" fill="#7EC8E3" rx=".3"/><rect width="7" height="7" x="33" y="32" fill="#7EC8E3" rx=".3"/><rect width="7" height="7" x="40" y="32" fill="#7EC8E3" rx=".3"/><rect width="7" height="7" x="12" y="39" fill="#7EC8E3" rx=".3"/><rect width="7" height="7" x="12" y="46" fill="#7EC8E3" rx=".3"/><rect width="7" height="7" x="12" y="53" fill="#7EC8E3" rx=".3"/><rect width="7" height="7" x="19" y="60" fill="#7EC8E3" rx=".3"/><rect width="7" height="7" x="26" y="60" fill="#7EC8E3" rx=".3"/><rect width="7" height="7" x="33" y="60" fill="#7EC8E3" rx=".3"/><rect width="7" height="7" x="40" y="60" fill="#7EC8E3" rx=".3"/><rect width="7" height="7" x="53" y="32" fill="#7EC8E3" rx=".3"/><rect width="7" height="7" x="60" y="32" fill="#7EC8E3" rx=".3"/><rect width="7" height="7" x="67" y="32" fill="#7EC8E3" rx=".3"/><rect width="7" height="7" x="74" y="32" fill="#7EC8E3" rx=".3"/><rect width="7" height="7" x="81" y="32" fill="#7EC8E3" rx=".3"/><rect width="7" height="7" x="74" y="39" fill="#7EC8E3" rx=".3"/><rect width="7" height="7" x="67" y="46" fill="#7EC8E3" rx=".3"/><rect width="7" height="7" x="60" y="53" fill="#7EC8E3" rx=".3"/><rect width="7" height="7" x="53" y="60" fill="#7EC8E3" rx=".3"/><rect width="7" height="7" x="60" y="60" fill="#7EC8E3" rx=".3"/><rect width="7" height="7" x="67" y="60" fill="#7EC8E3" rx=".3"/><rect width="7" height="7" x="74" y="60" fill="#7EC8E3" rx=".3"/><rect width="7" height="7" x="81" y="60" fill="#7EC8E3" rx=".3"/></g></svg>