<svg xmlns="http://www.w3.org/2000/svg" width="256" height="256" shape-rendering="crispEdges" viewBox="0 0 100 100"><defs><clipPath id="px1212_c"><rect width="100" height="100" rx="6" ry="6"/></clipPath></defs><g clip-path="url(#px1212_c)"><rect width="100" height="100" fill="#2b2b26"/><rect width="10" height="10" x="30" y="70" fill="#c66" opacity=".09"/><rect width="10" height="10" x="90" y="70" fill="#c66" opacity=".15"/><rect width="10" height="10" x="50" y="90" fill="#f0c674" opacity=".12"/><rect width="10" height="10" x="20" y="90" fill="#c66" opacity=".13"/><rect width="10" height="10" x="70" y="30" fill="#c66" opacity=".13"/><rect width="10" height="10" x="20" y="0" fill="#f0c674" opacity=".08"/><rect width="10" height="10" x="50" y="0" fill="#c66" opacity=".15"/><rect width="10" height="10" x="70" y="50" fill="#f0c674" opacity=".13"/><rect width="10" height="10" x="80" y="50" fill="#f0c674" opacity=".13"/><rect width="10" height="10" x="80" y="70" fill="#f0c674" opacity=".08"/><rect width="10" height="10" x="40" y="70" fill="#f0c674" opacity=".13"/><rect width="10" height="10" x="30" y="40" fill="#f0c674" opacity=".08"/><rect width="7" height="7" x="19" y="32" fill="#f0c674" rx=".3"/><rect width="7" height="7" x="26" y="32" fill="#f0c674" rx=".3"/><rect width="7" height="7" x="33" y="32" fill="#f0c674" rx=".3"/><rect width="7" height="7" x="12" y="39" fill="#f0c674" rx=".3"/><rect width="7" height="7" x="40" y="39" fill="#f0c674" rx=".3"/><rect width="7" height="7" x="12" y="46" fill="#f0c674" rx=".3"/><rect width="7" height="7" x="19" y="46" fill="#f0c674" rx=".3"/><rect width="7" height="7" x="26" y="46" fill="#f0c674" rx=".3"/><rect width="7" height="7" x="33" y="46" fill="#f0c674" rx=".3"/><rect width="7" height="7" x="40" y="46" fill="#f0c674" rx=".3"/><rect width="7" height="7" x="12" y="53" fill="#f0c674" rx=".3"/><rect width="7" height="7" x="40" y="53" fill="#f0c674" rx=".3"/><rect width="7" height="7" x="12" y="60" fill="#f0c674" rx=".3"/><rect width="7" height="7" x="40" y="60" fill="#f0c674" rx=".3"/><rect width="7" height="7" x="53" y="32" fill="#f0c674" rx=".3"/><rect width="7" height="7" x="81" y="32" fill="#f0c674" rx=".3"/><rect width="7" height="7" x="53" y="39" fill="#f0c674" rx=".3"/><rect width="7" height="7" x="81" y="39" fill="#f0c674" rx=".3"/><rect width="7" height="7" x="53" y="46" fill="#f0c674" rx=".3"/><rect width="7" height="7" x="67" y="46" fill="#f0c674" rx=".3"/><rect width="7" height="7" x="81" y="46" fill="#f0c674" rx=".3"/><rect width="7" height="7" x="53" y="53" fill="#f0c674" rx=".3"/><rect width="7" height="7" x="60" y="53" fill="#f0c674" rx=".3"/><rect width="7" height="7" x="74" y="53" fill="#f0c674" rx=".3"/><rect width="7" height="7" x="81" y="53" fill="#f0c674" rx=".3"/><rect width="7" height="7" x="53" y="60" fill="#f0c674" rx=".3"/><rect width="7" height="7" x="81" y="60" fill="#f0c674" rx=".3"/></g></svg>