<svg xmlns="http://www.w3.org/2000/svg" width="256" height="256" viewBox="0 0 100 100">
  <defs><clipPath id="btil35_c"><rect width="100" height="100" rx="16"/></clipPath></defs>
  <g clip-path="url(#btil35_c)">
    <rect width="100" height="100" fill="#1A2A2A"/>
    <g transform="translate(0,8.8)">
    <line x1="50" y1="20" x2="50" y2="12" stroke="#F472B6" stroke-width="1.5"/><circle cx="50" cy="10" r="2.5" fill="#F472B6"/>
    <rect x="32.5" y="20" width="35" height="22" rx="4" fill="#F472B6"/>
    <rect x="36.5" y="25" width="27" height="4" rx="2" fill="#831843"/>
    <circle cx="44" cy="30" r="3" fill="#F472B6" opacity="0.5"/><circle cx="44" cy="30" r="1.5" fill="#F472B6"/><circle cx="56" cy="30" r="3" fill="#F472B6" opacity="0.5"/><circle cx="56" cy="30" r="1.5" fill="#F472B6"/>
    <rect x="35" y="44" width="30" height="23" rx="3" fill="#F472B6"/>
    <line x1="40" y1="55.5" x2="60" y2="55.5" stroke="#831843" stroke-width="1" stroke-linecap="round"/>
    <rect x="29" y="47" width="5" height="17" rx="2" fill="#F472B6"/><rect x="66" y="47" width="5" height="17" rx="2" fill="#F472B6"/>
    <circle cx="44" cy="71" r="4" fill="#F472B6"/><circle cx="56" cy="71" r="4" fill="#F472B6"/>
    </g>
  </g></svg>