<svg xmlns="http://www.w3.org/2000/svg" width="256" height="256" viewBox="0 0 100 100"><defs><clipPath id="tm2106993790_c"><rect width="100" height="100" rx="8" ry="8"/></clipPath><radialGradient id="tm2106993790_glow" cx="50%" cy="50%"><stop offset="0%" stop-color="#3F0" stop-opacity=".08"/><stop offset="100%" stop-color="#3F0" stop-opacity="0"/></radialGradient><filter id="tm2106993790_blur"><feGaussianBlur in="SourceGraphic" stdDeviation="8"/></filter></defs><g clip-path="url(#tm2106993790_c)"><rect width="100" height="100" fill="#0C0C0C"/><rect width="100" height="1.5" x="0" y="0" fill="#3F0" opacity=".03"/><rect width="100" height="1.5" x="0" y="4" fill="#3F0" opacity=".03"/><rect width="100" height="1.5" x="0" y="8" fill="#3F0" opacity=".03"/><rect width="100" height="1.5" x="0" y="12" fill="#3F0" opacity=".03"/><rect width="100" height="1.5" x="0" y="16" fill="#3F0" opacity=".03"/><rect width="100" height="1.5" x="0" y="20" fill="#3F0" opacity=".03"/><rect width="100" height="1.5" x="0" y="24" fill="#3F0" opacity=".03"/><rect width="100" height="1.5" x="0" y="28" fill="#3F0" opacity=".03"/><rect width="100" height="1.5" x="0" y="32" fill="#3F0" opacity=".03"/><rect width="100" height="1.5" x="0" y="36" fill="#3F0" opacity=".03"/><rect width="100" height="1.5" x="0" y="40" fill="#3F0" opacity=".03"/><rect width="100" height="1.5" x="0" y="44" fill="#3F0" opacity=".03"/><rect width="100" height="1.5" x="0" y="48" fill="#3F0" opacity=".03"/><rect width="100" height="1.5" x="0" y="52" fill="#3F0" opacity=".03"/><rect width="100" height="1.5" x="0" y="56" fill="#3F0" opacity=".03"/><rect width="100" height="1.5" x="0" y="60" fill="#3F0" opacity=".03"/><rect width="100" height="1.5" x="0" y="64" fill="#3F0" opacity=".03"/><rect width="100" height="1.5" x="0" y="68" fill="#3F0" opacity=".03"/><rect width="100" height="1.5" x="0" y="72" fill="#3F0" opacity=".03"/><rect width="100" height="1.5" x="0" y="76" fill="#3F0" opacity=".03"/><rect width="100" height="1.5" x="0" y="80" fill="#3F0" opacity=".03"/><rect width="100" height="1.5" x="0" y="84" fill="#3F0" opacity=".03"/><rect width="100" height="1.5" x="0" y="88" fill="#3F0" opacity=".03"/><rect width="100" height="1.5" x="0" y="92" fill="#3F0" opacity=".03"/><rect width="100" height="1.5" x="0" y="96" fill="#3F0" opacity=".03"/><rect width="100" height="100" fill="url(#tm2106993790_glow)"/><text x="50" y="52" fill="#3F0" dy=".35em" filter="url(#tm2106993790_blur)" font-family="'IBM Plex Mono', 'SF Mono', monospace" font-size="32" font-weight="500" opacity=".4" text-anchor="middle">~ IL</text><text x="12" y="52" fill="#1A8A00" dy=".35em" font-family="'IBM Plex Mono', monospace" font-size="32" font-weight="400">~</text><text x="28" y="52" fill="#3F0" dy=".35em" font-family="'IBM Plex Mono', 'SF Mono', monospace" font-size="32" font-weight="600">IL</text><rect width="17.6" height="27.2" x="68.4" y="40.8" fill="#3F0" opacity=".7"/><circle cx="14" cy="12" r="3" fill="#3F0" opacity=".2"/><circle cx="24" cy="12" r="3" fill="#3F0" opacity=".14"/><circle cx="34" cy="12" r="3" fill="#3F0" opacity=".08"/><line x1="10" x2="90" y1="90" y2="90" stroke="#3F0" stroke-width=".5" opacity=".1"/></g></svg>