<svg xmlns="http://www.w3.org/2000/svg" width="256" height="256" viewBox="0 0 100 100">
  <defs><clipPath id="btcz35_c"><rect width="100" height="100" rx="16"/></clipPath></defs>
  <g clip-path="url(#btcz35_c)">
    <rect width="100" height="100" fill="#1A2A2A"/>
    <g transform="translate(0,8.8)">
    <line x1="50" y1="20" x2="45" y2="10" stroke="#EF4444" stroke-width="1.5"/><line x1="50" y1="20" x2="55" y2="10" stroke="#EF4444" stroke-width="1.5"/><circle cx="45" cy="10" r="1.5" fill="#EF4444"/><circle cx="55" cy="10" r="1.5" fill="#EF4444"/>
    <rect x="32.5" y="20" width="35" height="22" rx="11" fill="#EF4444"/>
    <rect x="35.5" y="25" width="29" height="10" rx="5" fill="#7F1D1D"/>
    <polygon points="44,29 47,33 41,33" fill="#EF4444"/><polygon points="56,29 59,33 53,33" fill="#EF4444"/>
    <rect x="36.5" y="44" width="27" height="22" rx="3" fill="#EF4444"/>
    <circle cx="43.25" cy="55" r="1.5" fill="#7F1D1D"/><circle cx="56.75" cy="55" r="1.5" fill="#7F1D1D"/>
    
    <rect x="41" y="66" width="6" height="8" rx="1" fill="#EF4444"/><rect x="53" y="66" width="6" height="8" rx="1" fill="#EF4444"/>
    </g>
  </g></svg>