<svg xmlns="http://www.w3.org/2000/svg" width="256" height="256" viewBox="0 0 100 100"><defs><clipPath id="tm3822940793_c"><rect width="100" height="100" rx="8" ry="8"/></clipPath><radialGradient id="tm3822940793_glow" cx="50%" cy="50%"><stop offset="0%" stop-color="#F36" stop-opacity=".08"/><stop offset="100%" stop-color="#F36" stop-opacity="0"/></radialGradient><filter id="tm3822940793_blur"><feGaussianBlur in="SourceGraphic" stdDeviation="8"/></filter></defs><g clip-path="url(#tm3822940793_c)"><rect width="100" height="100" fill="#0C0C0C"/><rect width="100" height="1.5" x="0" y="0" fill="#F36" opacity=".03"/><rect width="100" height="1.5" x="0" y="4" fill="#F36" opacity=".03"/><rect width="100" height="1.5" x="0" y="8" fill="#F36" opacity=".03"/><rect width="100" height="1.5" x="0" y="12" fill="#F36" opacity=".03"/><rect width="100" height="1.5" x="0" y="16" fill="#F36" opacity=".03"/><rect width="100" height="1.5" x="0" y="20" fill="#F36" opacity=".03"/><rect width="100" height="1.5" x="0" y="24" fill="#F36" opacity=".03"/><rect width="100" height="1.5" x="0" y="28" fill="#F36" opacity=".03"/><rect width="100" height="1.5" x="0" y="32" fill="#F36" opacity=".03"/><rect width="100" height="1.5" x="0" y="36" fill="#F36" opacity=".03"/><rect width="100" height="1.5" x="0" y="40" fill="#F36" opacity=".03"/><rect width="100" height="1.5" x="0" y="44" fill="#F36" opacity=".03"/><rect width="100" height="1.5" x="0" y="48" fill="#F36" opacity=".03"/><rect width="100" height="1.5" x="0" y="52" fill="#F36" opacity=".03"/><rect width="100" height="1.5" x="0" y="56" fill="#F36" opacity=".03"/><rect width="100" height="1.5" x="0" y="60" fill="#F36" opacity=".03"/><rect width="100" height="1.5" x="0" y="64" fill="#F36" opacity=".03"/><rect width="100" height="1.5" x="0" y="68" fill="#F36" opacity=".03"/><rect width="100" height="1.5" x="0" y="72" fill="#F36" opacity=".03"/><rect width="100" height="1.5" x="0" y="76" fill="#F36" opacity=".03"/><rect width="100" height="1.5" x="0" y="80" fill="#F36" opacity=".03"/><rect width="100" height="1.5" x="0" y="84" fill="#F36" opacity=".03"/><rect width="100" height="1.5" x="0" y="88" fill="#F36" opacity=".03"/><rect width="100" height="1.5" x="0" y="92" fill="#F36" opacity=".03"/><rect width="100" height="1.5" x="0" y="96" fill="#F36" opacity=".03"/><rect width="100" height="100" fill="url(#tm3822940793_glow)"/><text x="50" y="52" fill="#F36" dy=".35em" filter="url(#tm3822940793_blur)" font-family="'IBM Plex Mono', 'SF Mono', monospace" font-size="32" font-weight="500" opacity=".4" text-anchor="middle">$ DL</text><text x="14" y="52" fill="#8A1A36" dy=".35em" font-family="'IBM Plex Mono', monospace" font-size="32" font-weight="400">$</text><text x="30" y="52" fill="#F36" dy=".35em" font-family="'IBM Plex Mono', 'SF Mono', monospace" font-size="32" font-weight="600">DL</text><rect width="17.6" height="27.2" x="70.4" y="40.8" fill="#F36" opacity=".7"/><circle cx="14" cy="12" r="3" fill="#F36" opacity=".2"/><circle cx="24" cy="12" r="3" fill="#F36" opacity=".14"/><circle cx="34" cy="12" r="3" fill="#F36" opacity=".08"/></g></svg>