<svg xmlns="http://www.w3.org/2000/svg" width="256" height="256" shape-rendering="crispEdges" viewBox="0 0 100 100"><defs><clipPath id="px1212_c"><rect width="100" height="100" rx="6" ry="6"/></clipPath></defs><g clip-path="url(#px1212_c)"><rect width="100" height="100" fill="#1B1B3A"/><rect width="10" height="10" x="80" y="10" fill="#F564A9" opacity=".13"/><rect width="10" height="10" x="90" y="80" fill="#F564A9" opacity=".09"/><rect width="10" height="10" x="40" y="70" fill="#F564A9" opacity=".11"/><rect width="10" height="10" x="50" y="0" fill="#F564A9" opacity=".14"/><rect width="10" height="10" x="80" y="20" fill="#FAC67A" opacity=".13"/><rect width="10" height="10" x="20" y="90" fill="#F564A9" opacity=".12"/><rect width="10" height="10" x="60" y="50" fill="#F564A9" opacity=".1"/><rect width="10" height="10" x="50" y="80" fill="#FAC67A" opacity=".17"/><rect width="10" height="10" x="50" y="70" fill="#F564A9" opacity=".08"/><rect width="10" height="10" x="80" y="70" fill="#FAC67A" opacity=".09"/><rect width="10" height="10" x="90" y="80" fill="#F564A9" opacity=".16"/><rect width="10" height="10" x="50" y="40" fill="#F564A9" opacity=".15"/><rect width="7" height="7" x="12" y="32" fill="#F564A9" rx=".3"/><rect width="7" height="7" x="19" y="32" fill="#F564A9" rx=".3"/><rect width="7" height="7" x="26" y="32" fill="#F564A9" rx=".3"/><rect width="7" height="7" x="33" y="32" fill="#F564A9" rx=".3"/><rect width="7" height="7" x="12" y="39" fill="#F564A9" rx=".3"/><rect width="7" height="7" x="40" y="39" fill="#F564A9" rx=".3"/><rect width="7" height="7" x="12" y="46" fill="#F564A9" rx=".3"/><rect width="7" height="7" x="19" y="46" fill="#F564A9" rx=".3"/><rect width="7" height="7" x="26" y="46" fill="#F564A9" rx=".3"/><rect width="7" height="7" x="33" y="46" fill="#F564A9" rx=".3"/><rect width="7" height="7" x="12" y="53" fill="#F564A9" rx=".3"/><rect width="7" height="7" x="40" y="53" fill="#F564A9" rx=".3"/><rect width="7" height="7" x="12" y="60" fill="#F564A9" rx=".3"/><rect width="7" height="7" x="19" y="60" fill="#F564A9" rx=".3"/><rect width="7" height="7" x="26" y="60" fill="#F564A9" rx=".3"/><rect width="7" height="7" x="33" y="60" fill="#F564A9" rx=".3"/><rect width="7" height="7" x="53" y="32" fill="#F564A9" rx=".3"/><rect width="7" height="7" x="60" y="32" fill="#F564A9" rx=".3"/><rect width="7" height="7" x="67" y="32" fill="#F564A9" rx=".3"/><rect width="7" height="7" x="74" y="32" fill="#F564A9" rx=".3"/><rect width="7" height="7" x="53" y="39" fill="#F564A9" rx=".3"/><rect width="7" height="7" x="81" y="39" fill="#F564A9" rx=".3"/><rect width="7" height="7" x="53" y="46" fill="#F564A9" rx=".3"/><rect width="7" height="7" x="81" y="46" fill="#F564A9" rx=".3"/><rect width="7" height="7" x="53" y="53" fill="#F564A9" rx=".3"/><rect width="7" height="7" x="81" y="53" fill="#F564A9" rx=".3"/><rect width="7" height="7" x="53" y="60" fill="#F564A9" rx=".3"/><rect width="7" height="7" x="60" y="60" fill="#F564A9" rx=".3"/><rect width="7" height="7" x="67" y="60" fill="#F564A9" rx=".3"/><rect width="7" height="7" x="74" y="60" fill="#F564A9" rx=".3"/></g></svg>