<svg xmlns="http://www.w3.org/2000/svg" width="256" height="256" viewBox="0 0 100 100"><defs><clipPath id="tm3201626154_c"><rect width="100" height="100" rx="8" ry="8"/></clipPath><radialGradient id="tm3201626154_glow" cx="50%" cy="50%"><stop offset="0%" stop-color="#CCC" stop-opacity=".08"/><stop offset="100%" stop-color="#CCC" stop-opacity="0"/></radialGradient><filter id="tm3201626154_blur"><feGaussianBlur in="SourceGraphic" stdDeviation="8"/></filter></defs><g clip-path="url(#tm3201626154_c)"><rect width="100" height="100" fill="#0C0C0C"/><rect width="100" height="1.5" x="0" y="0" fill="#CCC" opacity=".03"/><rect width="100" height="1.5" x="0" y="4" fill="#CCC" opacity=".03"/><rect width="100" height="1.5" x="0" y="8" fill="#CCC" opacity=".03"/><rect width="100" height="1.5" x="0" y="12" fill="#CCC" opacity=".03"/><rect width="100" height="1.5" x="0" y="16" fill="#CCC" opacity=".03"/><rect width="100" height="1.5" x="0" y="20" fill="#CCC" opacity=".03"/><rect width="100" height="1.5" x="0" y="24" fill="#CCC" opacity=".03"/><rect width="100" height="1.5" x="0" y="28" fill="#CCC" opacity=".03"/><rect width="100" height="1.5" x="0" y="32" fill="#CCC" opacity=".03"/><rect width="100" height="1.5" x="0" y="36" fill="#CCC" opacity=".03"/><rect width="100" height="1.5" x="0" y="40" fill="#CCC" opacity=".03"/><rect width="100" height="1.5" x="0" y="44" fill="#CCC" opacity=".03"/><rect width="100" height="1.5" x="0" y="48" fill="#CCC" opacity=".03"/><rect width="100" height="1.5" x="0" y="52" fill="#CCC" opacity=".03"/><rect width="100" height="1.5" x="0" y="56" fill="#CCC" opacity=".03"/><rect width="100" height="1.5" x="0" y="60" fill="#CCC" opacity=".03"/><rect width="100" height="1.5" x="0" y="64" fill="#CCC" opacity=".03"/><rect width="100" height="1.5" x="0" y="68" fill="#CCC" opacity=".03"/><rect width="100" height="1.5" x="0" y="72" fill="#CCC" opacity=".03"/><rect width="100" height="1.5" x="0" y="76" fill="#CCC" opacity=".03"/><rect width="100" height="1.5" x="0" y="80" fill="#CCC" opacity=".03"/><rect width="100" height="1.5" x="0" y="84" fill="#CCC" opacity=".03"/><rect width="100" height="1.5" x="0" y="88" fill="#CCC" opacity=".03"/><rect width="100" height="1.5" x="0" y="92" fill="#CCC" opacity=".03"/><rect width="100" height="1.5" x="0" y="96" fill="#CCC" opacity=".03"/><rect width="100" height="100" fill="url(#tm3201626154_glow)"/><text x="50" y="52" fill="#CCC" dy=".35em" filter="url(#tm3201626154_blur)" font-family="'IBM Plex Mono', 'SF Mono', monospace" font-size="32" font-weight="500" opacity=".4" text-anchor="middle">&gt; AW</text><text x="14" y="52" fill="#555" dy=".35em" font-family="'IBM Plex Mono', monospace" font-size="32" font-weight="400">&gt;</text><text x="30" y="52" fill="#CCC" dy=".35em" font-family="'IBM Plex Mono', 'SF Mono', monospace" font-size="32" font-weight="600">AW</text><rect width="17.6" height="27.2" x="70.4" y="40.8" fill="#CCC" opacity=".7"/></g></svg>