<svg xmlns="http://www.w3.org/2000/svg" width="256" height="256" viewBox="0 0 100 100">
  <defs>
    <clipPath id="fcCZ18_c"><rect width="100" height="100" rx="16" ry="16"/></clipPath>
  </defs>
  <g clip-path="url(#fcCZ18_c)">
    <rect width="100" height="100" fill="#FFF8F0"/>
    <g transform="rotate(-2, 50, 50)">
      <ellipse cx="50" cy="47" rx="28" ry="30" fill="none" stroke="#2B3A3B" stroke-width="2.2"/>
      <ellipse cx="32" cy="42" rx="3.5" ry="6" fill="#2B3A3B"/>
    <ellipse cx="68" cy="42" rx="3.5" ry="6" fill="#2B3A3B"/>
      <line x1="28" y1="32" x2="35" y2="33" stroke="#2B3A3B" stroke-width="1.8" stroke-linecap="round"/>
    <line x1="65" y1="33" x2="72" y2="32" stroke="#2B3A3B" stroke-width="1.8" stroke-linecap="round"/>
      <line x1="50" y1="48" x2="50" y2="53" stroke="#2B3A3B" stroke-width="1.5" stroke-linecap="round" opacity="0.5"/>
      <path d="M44 63 Q47 67 50 63" fill="none" stroke="#2B3A3B" stroke-width="1.8" stroke-linecap="round"/>
    <path d="M50 63 Q53 67 56 63" fill="none" stroke="#2B3A3B" stroke-width="1.8" stroke-linecap="round"/>
      <circle cx="30" cy="50" r="5" fill="#D4713B" opacity="0.2"/>
  <circle cx="70" cy="50" r="5" fill="#D4713B" opacity="0.2"/>
      <circle cx="38" cy="50" r="1" fill="#2B3A3B" opacity="0.2"/>
  <circle cx="41" cy="52" r="1" fill="#2B3A3B" opacity="0.15"/>
  <circle cx="59" cy="49" r="1" fill="#2B3A3B" opacity="0.2"/>
  <circle cx="62" cy="51" r="1" fill="#2B3A3B" opacity="0.15"/>
    </g>
    <text x="50" y="82" text-anchor="middle" fill="#2B3A3B" font-family="'Caveat', cursive" font-size="14" font-weight="600" opacity="0.7">CZ</text>
  </g>
</svg>