<svg xmlns="http://www.w3.org/2000/svg" width="256" height="256" viewBox="0 0 100 100">
  <defs>
    <clipPath id="tm3822940793_c"><rect width="100" height="100" rx="8" ry="8"/></clipPath>
    <radialGradient id="tm3822940793_glow" cx="50%" cy="50%">
      <stop offset="0%" stop-color="#FF3366" stop-opacity="0.08"/>
      <stop offset="100%" stop-color="#FF3366" stop-opacity="0"/>
    </radialGradient>
    <filter id="tm3822940793_blur">
      <feGaussianBlur in="SourceGraphic" stdDeviation="8"/>
    </filter>
  </defs>
  <g clip-path="url(#tm3822940793_c)">
    <rect width="100" height="100" fill="#0C0C0C"/>
    <rect x="0" y="0" width="100" height="1.5" fill="#FF3366" opacity="0.03"/><rect x="0" y="4" width="100" height="1.5" fill="#FF3366" opacity="0.03"/><rect x="0" y="8" width="100" height="1.5" fill="#FF3366" opacity="0.03"/><rect x="0" y="12" width="100" height="1.5" fill="#FF3366" opacity="0.03"/><rect x="0" y="16" width="100" height="1.5" fill="#FF3366" opacity="0.03"/><rect x="0" y="20" width="100" height="1.5" fill="#FF3366" opacity="0.03"/><rect x="0" y="24" width="100" height="1.5" fill="#FF3366" opacity="0.03"/><rect x="0" y="28" width="100" height="1.5" fill="#FF3366" opacity="0.03"/><rect x="0" y="32" width="100" height="1.5" fill="#FF3366" opacity="0.03"/><rect x="0" y="36" width="100" height="1.5" fill="#FF3366" opacity="0.03"/><rect x="0" y="40" width="100" height="1.5" fill="#FF3366" opacity="0.03"/><rect x="0" y="44" width="100" height="1.5" fill="#FF3366" opacity="0.03"/><rect x="0" y="48" width="100" height="1.5" fill="#FF3366" opacity="0.03"/><rect x="0" y="52" width="100" height="1.5" fill="#FF3366" opacity="0.03"/><rect x="0" y="56" width="100" height="1.5" fill="#FF3366" opacity="0.03"/><rect x="0" y="60" width="100" height="1.5" fill="#FF3366" opacity="0.03"/><rect x="0" y="64" width="100" height="1.5" fill="#FF3366" opacity="0.03"/><rect x="0" y="68" width="100" height="1.5" fill="#FF3366" opacity="0.03"/><rect x="0" y="72" width="100" height="1.5" fill="#FF3366" opacity="0.03"/><rect x="0" y="76" width="100" height="1.5" fill="#FF3366" opacity="0.03"/><rect x="0" y="80" width="100" height="1.5" fill="#FF3366" opacity="0.03"/><rect x="0" y="84" width="100" height="1.5" fill="#FF3366" opacity="0.03"/><rect x="0" y="88" width="100" height="1.5" fill="#FF3366" opacity="0.03"/><rect x="0" y="92" width="100" height="1.5" fill="#FF3366" opacity="0.03"/><rect x="0" y="96" width="100" height="1.5" fill="#FF3366" opacity="0.03"/>
    <rect width="100" height="100" fill="url(#tm3822940793_glow)"/>
    <text x="50" y="52" dy="0.35em" text-anchor="middle" fill="#FF3366" font-family="'IBM Plex Mono', 'SF Mono', monospace" font-size="32" font-weight="500" filter="url(#tm3822940793_blur)" opacity="0.4">$ DL</text>
    <text x="14" y="52" dy="0.35em" fill="#8A1A36" font-family="'IBM Plex Mono', monospace" font-size="32" font-weight="400">$</text>
    <text x="30" y="52" dy="0.35em" fill="#FF3366" font-family="'IBM Plex Mono', 'SF Mono', monospace" font-size="32" font-weight="600">DL</text>
    <rect x="70.4" y="40.8" width="17.6" height="27.2" fill="#FF3366" opacity="0.7"/>
    <circle cx="14" cy="12" r="3" fill="#FF3366" opacity="0.2"/>
    <circle cx="24" cy="12" r="3" fill="#FF3366" opacity="0.14"/>
    <circle cx="34" cy="12" r="3" fill="#FF3366" opacity="0.08"/>
    
  </g>
</svg>