<svg xmlns="http://www.w3.org/2000/svg" width="256" height="256" viewBox="0 0 100 100">
  <defs>
    <clipPath id="tm3201626154_c"><rect width="100" height="100" rx="8" ry="8"/></clipPath>
    <radialGradient id="tm3201626154_glow" cx="50%" cy="50%">
      <stop offset="0%" stop-color="#CCCCCC" stop-opacity="0.08"/>
      <stop offset="100%" stop-color="#CCCCCC" stop-opacity="0"/>
    </radialGradient>
    <filter id="tm3201626154_blur">
      <feGaussianBlur in="SourceGraphic" stdDeviation="8"/>
    </filter>
  </defs>
  <g clip-path="url(#tm3201626154_c)">
    <rect width="100" height="100" fill="#0C0C0C"/>
    <rect x="0" y="0" width="100" height="1.5" fill="#CCCCCC" opacity="0.03"/><rect x="0" y="4" width="100" height="1.5" fill="#CCCCCC" opacity="0.03"/><rect x="0" y="8" width="100" height="1.5" fill="#CCCCCC" opacity="0.03"/><rect x="0" y="12" width="100" height="1.5" fill="#CCCCCC" opacity="0.03"/><rect x="0" y="16" width="100" height="1.5" fill="#CCCCCC" opacity="0.03"/><rect x="0" y="20" width="100" height="1.5" fill="#CCCCCC" opacity="0.03"/><rect x="0" y="24" width="100" height="1.5" fill="#CCCCCC" opacity="0.03"/><rect x="0" y="28" width="100" height="1.5" fill="#CCCCCC" opacity="0.03"/><rect x="0" y="32" width="100" height="1.5" fill="#CCCCCC" opacity="0.03"/><rect x="0" y="36" width="100" height="1.5" fill="#CCCCCC" opacity="0.03"/><rect x="0" y="40" width="100" height="1.5" fill="#CCCCCC" opacity="0.03"/><rect x="0" y="44" width="100" height="1.5" fill="#CCCCCC" opacity="0.03"/><rect x="0" y="48" width="100" height="1.5" fill="#CCCCCC" opacity="0.03"/><rect x="0" y="52" width="100" height="1.5" fill="#CCCCCC" opacity="0.03"/><rect x="0" y="56" width="100" height="1.5" fill="#CCCCCC" opacity="0.03"/><rect x="0" y="60" width="100" height="1.5" fill="#CCCCCC" opacity="0.03"/><rect x="0" y="64" width="100" height="1.5" fill="#CCCCCC" opacity="0.03"/><rect x="0" y="68" width="100" height="1.5" fill="#CCCCCC" opacity="0.03"/><rect x="0" y="72" width="100" height="1.5" fill="#CCCCCC" opacity="0.03"/><rect x="0" y="76" width="100" height="1.5" fill="#CCCCCC" opacity="0.03"/><rect x="0" y="80" width="100" height="1.5" fill="#CCCCCC" opacity="0.03"/><rect x="0" y="84" width="100" height="1.5" fill="#CCCCCC" opacity="0.03"/><rect x="0" y="88" width="100" height="1.5" fill="#CCCCCC" opacity="0.03"/><rect x="0" y="92" width="100" height="1.5" fill="#CCCCCC" opacity="0.03"/><rect x="0" y="96" width="100" height="1.5" fill="#CCCCCC" opacity="0.03"/>
    <rect width="100" height="100" fill="url(#tm3201626154_glow)"/>
    <text x="50" y="52" dy="0.35em" text-anchor="middle" fill="#CCCCCC" font-family="'IBM Plex Mono', 'SF Mono', monospace" font-size="32" font-weight="500" filter="url(#tm3201626154_blur)" opacity="0.4">> AW</text>
    <text x="14" y="52" dy="0.35em" fill="#555555" font-family="'IBM Plex Mono', monospace" font-size="32" font-weight="400">></text>
    <text x="30" y="52" dy="0.35em" fill="#CCCCCC" font-family="'IBM Plex Mono', 'SF Mono', monospace" font-size="32" font-weight="600">AW</text>
    <rect x="70.4" y="40.8" width="17.6" height="27.2" fill="#CCCCCC" opacity="0.7"/>
    
    
  </g>
</svg>