<svg xmlns="http://www.w3.org/2000/svg" width="256" height="256" viewBox="0 0 100 100">
  <defs><clipPath id="gh294_c"><rect width="100" height="100" rx="16"/></clipPath></defs>
  <g clip-path="url(#gh294_c)">
    <rect width="100" height="100" fill="#14181E"/>
    <circle cx="73" cy="17" r="1" fill="#FFF4E4" opacity="0.2"/><circle cx="79" cy="32" r="1" fill="#FFF4E4" opacity="0.2"/><circle cx="60" cy="17" r="2" fill="#FFF4E4" opacity="0.2"/><circle cx="41" cy="50" r="2" fill="#FFF4E4" opacity="0.2"/>
    <g transform="translate(0,-3) rotate(-1, 50, 50)">
      <path d="M21,55 L21,72 Q30.666666666666664,79 40.33333333333333,72 Q49.99999999999999,65 59.66666666666666,72 Q69.33333333333333,79 79,72  L79,55 C79,11.5 21,11.5 21,55 Z" fill="#FFF4E4" opacity="0.85"/>
      <line x1="38" y1="45.4" x2="44" y2="45.4" stroke="#14181E" stroke-width="2.5" stroke-linecap="round"/><line x1="56" y1="45.4" x2="62" y2="45.4" stroke="#14181E" stroke-width="2.5" stroke-linecap="round"/>
      <line x1="47" y1="53.4" x2="53" y2="53.4" stroke="#14181E" stroke-width="1.8" stroke-linecap="round"/>
      <circle cx="39" cy="50.4" r="4" fill="#FFD89E" opacity="0.25"/><circle cx="61" cy="50.4" r="4" fill="#FFD89E" opacity="0.25"/>
    </g>
  </g></svg>