<svg xmlns="http://www.w3.org/2000/svg" width="256" height="256" viewBox="0 0 100 100" shape-rendering="crispEdges">
  <defs>
    <clipPath id="px1212_c"><rect width="100" height="100" rx="6" ry="6"/></clipPath>
  </defs>
  <g clip-path="url(#px1212_c)">
    <rect width="100" height="100" fill="#2b2b26"/>
    <rect x="30" y="70" width="10" height="10" fill="#cc6666" opacity="0.09"/><rect x="90" y="70" width="10" height="10" fill="#cc6666" opacity="0.15000000000000002"/><rect x="50" y="90" width="10" height="10" fill="#f0c674" opacity="0.12"/><rect x="20" y="90" width="10" height="10" fill="#cc6666" opacity="0.13"/><rect x="70" y="30" width="10" height="10" fill="#cc6666" opacity="0.13"/><rect x="20" y="0" width="10" height="10" fill="#f0c674" opacity="0.08"/><rect x="50" y="0" width="10" height="10" fill="#cc6666" opacity="0.15000000000000002"/><rect x="70" y="50" width="10" height="10" fill="#f0c674" opacity="0.13"/><rect x="80" y="50" width="10" height="10" fill="#f0c674" opacity="0.13"/><rect x="80" y="70" width="10" height="10" fill="#f0c674" opacity="0.08"/><rect x="40" y="70" width="10" height="10" fill="#f0c674" opacity="0.13"/><rect x="30" y="40" width="10" height="10" fill="#f0c674" opacity="0.08"/>
    <rect x="19" y="32" width="7" height="7" fill="#f0c674" rx="0.3"/><rect x="26" y="32" width="7" height="7" fill="#f0c674" rx="0.3"/><rect x="33" y="32" width="7" height="7" fill="#f0c674" rx="0.3"/><rect x="12" y="39" width="7" height="7" fill="#f0c674" rx="0.3"/><rect x="40" y="39" width="7" height="7" fill="#f0c674" rx="0.3"/><rect x="12" y="46" width="7" height="7" fill="#f0c674" rx="0.3"/><rect x="19" y="46" width="7" height="7" fill="#f0c674" rx="0.3"/><rect x="26" y="46" width="7" height="7" fill="#f0c674" rx="0.3"/><rect x="33" y="46" width="7" height="7" fill="#f0c674" rx="0.3"/><rect x="40" y="46" width="7" height="7" fill="#f0c674" rx="0.3"/><rect x="12" y="53" width="7" height="7" fill="#f0c674" rx="0.3"/><rect x="40" y="53" width="7" height="7" fill="#f0c674" rx="0.3"/><rect x="12" y="60" width="7" height="7" fill="#f0c674" rx="0.3"/><rect x="40" y="60" width="7" height="7" fill="#f0c674" rx="0.3"/><rect x="53" y="32" width="7" height="7" fill="#f0c674" rx="0.3"/><rect x="81" y="32" width="7" height="7" fill="#f0c674" rx="0.3"/><rect x="53" y="39" width="7" height="7" fill="#f0c674" rx="0.3"/><rect x="81" y="39" width="7" height="7" fill="#f0c674" rx="0.3"/><rect x="53" y="46" width="7" height="7" fill="#f0c674" rx="0.3"/><rect x="67" y="46" width="7" height="7" fill="#f0c674" rx="0.3"/><rect x="81" y="46" width="7" height="7" fill="#f0c674" rx="0.3"/><rect x="53" y="53" width="7" height="7" fill="#f0c674" rx="0.3"/><rect x="60" y="53" width="7" height="7" fill="#f0c674" rx="0.3"/><rect x="74" y="53" width="7" height="7" fill="#f0c674" rx="0.3"/><rect x="81" y="53" width="7" height="7" fill="#f0c674" rx="0.3"/><rect x="53" y="60" width="7" height="7" fill="#f0c674" rx="0.3"/><rect x="81" y="60" width="7" height="7" fill="#f0c674" rx="0.3"/>
  </g>
</svg>